# xmcd CD database file
#
# Track frame offsets:
#	150
#	21191
#	46038
#	66014
#	79331
#	104831
#	122640
#	143642
#	162937
#	185092
#	201689
#	232477
#	254789
#
# Disc length: 3810 seconds
#
# Revision: 0
# Processed by: cddbd v1.5PL3 Copyright (c) Steve Scherf et al.
# Submitted via: CDex 1.51
#
DISCID=cb0ee00d
DTITLE=Buddha Lounge 2 - Buddha Lounge 2
DYEAR=2002
DGENRE=New Age
TTITLE0=Streeto
TTITLE1=Cobra Call
TTITLE2=What's the bag dad
TTITLE3=Laguna del sur
TTITLE4=Gyayum tschenmo
TTITLE5=Journey of the warrior
TTITLE6=Starlight in daden
TTITLE7=Washri
TTITLE8=Strobe's nanafushi
TTITLE9=Golden brown
TTITLE10=Ocean
TTITLE11=Templehead
TTITLE12=Yaada
EXTD=YEAR: 2002
EXTT0=
EXTT1=
EXTT2=
EXTT3=
EXTT4=
EXTT5=
EXTT6=
EXTT7=
EXTT8=
EXTT9=
EXTT10=
EXTT11=
EXTT12=
PLAYORDER=
